<?xml version="1.0" standalone="no"?>
 <!DOCTYPE svg PUBLIC "-//W3C//DTD SVG 1.1//EN" 
 "http://www.w3.org/Graphics/SVG/1.1/DTD/svg11.dtd"> 
<svg
  xmlns:svg="http://www.w3.org/2000/svg"
  xmlns="http://www.w3.org/2000/svg"
  xmlns:xlink="http://www.w3.org/1999/xlink"
  xmlns:inkscape="http://www.inkscape.org/namespaces/inkscape"
  version="1.1"
  width="210.0072mm" height="148.0058mm" viewBox="0.0000 0.0000 210.0072 148.0058">
<title>SVG Image created as LEVIA_H7-Edge_Cuts.svg date 2026-06-24T16:13:19 </title>
  <desc>Image generated by PCBNEW </desc>
<g style="fill:#000000; fill-opacity:1.0000;stroke:#000000; stroke-opacity:1.0000;
stroke-linecap:round; stroke-linejoin:round;"
 transform="translate(0 0) scale(1 1)">
</g>
<g style="fill:none; 
stroke:#000000; stroke-width:0.1000; stroke-opacity:1; 
stroke-linecap:round; stroke-linejoin:round;">
<path d="M120.4691 84.3500
L120.4700 53.8500
" />
<path d="M121.0234 52.1139 A3.0000 3.0000 0.0 0 0 120.4700 53.8500" />
<path d="M120.4691 84.3500 A3.0009 3.0009 0.0 0 0 121.0250 86.0900" />
<path d="M123.4700 50.8491 A3.0009 3.0009 0.0 0 0 121.7300 51.4050" />
<path d="M122.0087 53.0975
L121.0234 52.1139
" />
<path d="M122.0100 85.1050
L121.0250 86.0900
" />
<path d="M122.7175 85.8113 A1.6437 1.6437 0.0 1 0 122.0100 85.1050" />
<path d="M122.7150 52.3900
L121.7300 51.4050
" />
<path d="M122.0087 53.0975 A1.6437 1.6437 0.0 1 0 122.7150 52.3900" />
<path d="M122.7175 85.8113
L121.7339 86.7966
" />
<path d="M121.7339 86.7966 A3.0000 3.0000 0.0 0 0 123.4691 87.3500" />
<path d="M123.4700 50.8491
L153.9709 50.8500
" />
<path d="M153.9700 87.3509
L123.4691 87.3500
" />
<path d="M155.7061 51.4034 A3.0000 3.0000 0.0 0 0 153.9709 50.8500" />
<path d="M154.7225 52.3887
L155.7061 51.4034
" />
<path d="M155.4313 85.1025 A1.6437 1.6437 0.0 1 0 154.7250 85.8100" />
<path d="M154.7250 85.8100
L155.7100 86.7950
" />
<path d="M154.7225 52.3887 A1.6437 1.6437 0.0 1 0 155.4300 53.0950" />
<path d="M155.4300 53.0950
L156.4150 52.1100
" />
<path d="M155.4313 85.1025
L156.4166 86.0861
" />
<path d="M153.9700 87.3509 A3.0009 3.0009 0.0 0 0 155.7100 86.7950" />
<path d="M156.9709 53.8500 A3.0009 3.0009 0.0 0 0 156.4150 52.1100" />
<path d="M156.4166 86.0861 A3.0000 3.0000 0.0 0 0 156.9700 84.3509" />
<path d="M156.9709 53.8500
L156.9700 84.3509
" />
</g> 
</svg>
