0
SECTION
2
HEADER
9
$INSUNITS
70
4
9
$ACADVER
1
AC1014
9
$HANDSEED
5
FFFF
0
ENDSEC
0
SECTION
2
TABLES
0
TABLE
2
VPORT
5
8
100
AcDbSymbolTable
0
ENDTAB
0
TABLE
2
LTYPE
5
5
100
AcDbSymbolTable
0
LTYPE
5
14
100
AcDbSymbolTableRecord
100
AcDbLinetypeTableRecord
2
BYBLOCK
70
0
0
LTYPE
5
15
100
AcDbSymbolTableRecord
100
AcDbLinetypeTableRecord
2
BYLAYER
70
0
0
LTYPE
5
16
100
AcDbSymbolTableRecord
100
AcDbLinetypeTableRecord
2
DASHED
70
0
3
Dashed __ __ __ __ __ __ __ __ __ __ __ __ __ _
72
65
73
2
40
0.75
49
0.5
74
0
49
-0.25
74
0
0
ENDTAB
0
TABLE
2
LAYER
5
2
100
AcDbSymbolTable
70
2
0
LAYER
5
50
100
AcDbSymbolTableRecord
100
AcDbLayerTableRecord
2
0
70
0
62
7
6
CONTINUOUS
0
ENDTAB
0
TABLE
2
STYLE
5
3
100
AcDbSymbolTable
70
1
0
STYLE
5
11
100
AcDbSymbolTableRecord
100
AcDbTextStyleTableRecord
2
STANDARD
70
0
0
ENDTAB
0
TABLE
2
VIEW
5
6
100
AcDbSymbolTable
70
0
0
ENDTAB
0
TABLE
2
UCS
5
7
100
AcDbSymbolTable
70
0
0
ENDTAB
0
TABLE
2
APPID
5
9
100
AcDbSymbolTable
70
2
0
APPID
5
12
100
AcDbSymbolTableRecord
100
AcDbRegAppTableRecord
2
ACAD
70
0
0
ENDTAB
0
TABLE
2
DIMSTYLE
5
A
100
AcDbSymbolTable
70
1
0
ENDTAB
0
TABLE
2
BLOCK_RECORD
5
1
100
AcDbSymbolTable
70
1
0
BLOCK_RECORD
5
1F
100
AcDbSymbolTableRecord
100
AcDbBlockTableRecord
2
*MODEL_SPACE
0
BLOCK_RECORD
5
1B
100
AcDbSymbolTableRecord
100
AcDbBlockTableRecord
2
*PAPER_SPACE
0
ENDTAB
0
ENDSEC
0
SECTION
2
BLOCKS
0
BLOCK
5
20
100
AcDbEntity
100
AcDbBlockBegin
2
*MODEL_SPACE
0
ENDBLK
5
21
100
AcDbEntity
100
AcDbBlockEnd
0
BLOCK
5
1C
100
AcDbEntity
100
AcDbBlockBegin
2
*PAPER_SPACE
0
ENDBLK
5
1D
100
AcDbEntity
100
AcDbBlockEnd
0
ENDSEC
0
SECTION
2
ENTITIES
0
LWPOLYLINE
5
100
100
AcDbEntity
8
0
100
AcDbPolyline
90
72
70
1
43
0.0
10
-12.790078404232911
20
-6.6160174566702876
42
0.41421356237309509
10
-12.507235691783096
20
-6.6160212022782448
10
-12.434367266918082
20
-6.5431547073405429
42
0.26086361988880985
10
-12.38129766978221
20
-6.3551053317394892
42
-3.5391911340779916
10
-12.059233084245642
20
-6.6767566308905879
42
0.26051371664456535
10
-12.247028939361899
20
-6.7298821930385575
10
-12.320205266058498
20
-6.8030565816530348
42
0.4142135623730962
10
-12.320209011666455
20
-7.0858992941028545
10
-12.046513754742804
20
-7.3596018000639596
42
0.19890787961099632
10
-11.834388064376872
20
-7.4474725747929327
10
-11.445131544925854
20
-7.4474844512395251
42
0.18267581368159436
10
-11.246697908394019
20
-7.3724905055322107
42
-0.1826758136815996
10
-10.783686089819737
20
-7.1975046322151428
10
-5.0608088514563274
20
-7.1976792405838905
42
-0.18267581368159982
10
-4.5978077115890121
20
-7.3726933671039161
42
0.18267581368159438
10
-4.3993786516458773
20
-7.4476994213267833
10
-4.0129200883746634
20
-7.4477112124060803
42
0.19894271274250339
10
-3.8007606051627074
20
-7.3598249496450094
10
-3.5263144094430072
20
-7.0853314076665992
42
0.41421356237309276
10
-3.5263388047331805
20
-6.8024886962440325
10
-3.5991679717510232
20
-6.7296720912287711
42
0.26084436863666161
10
-3.7872086042167421
20
-6.6766178413806028
42
-3.5391909326194586
10
-3.4655650668870304
20
-6.3545433630665702
42
0.26053294888402789
10
-3.4124241606497647
20
-6.5423479470295458
10
-3.3393209352002469
20
-6.6154385632052728
42
0.4142135623730962
10
-3.0564782237776793
20
-6.6154141679150982
10
-2.7827030342055297
20
-6.3415917478432888
42
0.19888228059171745
10
-2.6948533643707737
20
-6.1294868658445276
10
-2.6948418774463057
20
-5.7403238827851393
42
0.18267581368160299
10
-2.7698360203151706
20
-5.5418903207666039
42
-0.18267581368160007
10
-2.9448223536758587
20
-5.0788786760566849
10
-2.9446535134450107
20
0.6412223027739572
42
-0.18267581368159971
10
-2.7696398469581673
20
1.1042236165332517
42
0.18267581368160271
10
-2.694633989892377
20
1.3026527510015211
10
-2.6946225036047884
20
1.6917941573462021
42
0.1989165824009031
10
-2.7824876480717426
20
1.9039322257187907
10
-3.0569237622212766
20
2.1783756392133418
42
0.41421356237309442
10
-3.3397664746708844
20
2.1783794006335437
10
-3.4126387153092832
20
2.105509098171106
42
0.26085802889460796
10
-3.4657092992249132
20
1.9174637979744191
42
-3.5390966795758265
10
-3.787769482409173
20
2.2391152216379497
42
0.26051184932742227
10
-3.5999749851089664
20
2.2922410976652841
10
-3.526798117969304
20
2.3654160185268629
42
0.41421356237309731
10
-3.5267943565491029
20
2.6482587309764716
10
-3.8004842645948083
20
2.9219559185198962
42
0.19890782432473902
10
-4.0126098862297921
20
3.0098267051057377
10
-4.3991030359346297
20
3.0098386010651974
42
0.18267581368159824
10
-4.5975366926123247
20
2.9348447086637575
42
-0.18267581368160007
10
-5.0605485581936129
20
2.7598589597270635
10
-10.786199795975435
20
2.760035190832459
42
-0.18267581368159982
10
-11.249200888828121
20
2.9350494417299777
42
0.18267581368158797
10
-11.447629928622129
20
3.0100555492574852
10
-11.834118006208046
20
3.0100674450608289
42
0.19891873128430715
10
-12.046257939490053
20
2.9222008143918252
10
-12.320705884602997
20
2.6477563231749697
42
0.41421356237309909
10
-12.320707664385836
20
2.3649136107059499
10
-12.247837759386194
20
2.2920427886353241
42
0.26086415356819659
10
-12.059787626217481
20
2.2389745916843156
42
-3.5392159138702497
10
-12.381438560652427
20
1.9169069671489793
42
0.26051513940817361
10
-12.43456518087358
20
2.104703489847318
10
-12.507742199495159
20
2.1778814294049189
42
0.41421356237309587
10
-12.790584911964178
20
2.1778832091877565
10
-13.064283158753733
20
1.9041884068594213
42
0.19890613579223321
10
-13.152152459101652
20
1.6920641187179719
10
-13.152164242070988
20
1.3028038687098991
42
0.18267581368159197
10
-13.077170248653644
20
1.1043702502091055
42
-0.18267581368160007
10
-12.902184264013174
20
0.64135847370724697
10
-12.902357496389827
20
-5.0815180215715641
42
-0.18267581368159799
10
-13.077371511589007
20
-5.5445192035180657
42
0.18267581368160379
10
-13.15237751810294
20
-5.7429482814951394
10
-13.152389216851423
20
-6.129426225279774
42
0.1989167926693744
10
-13.0645240605322
20
-6.3415645314586122
0
ENDSEC
0
SECTION
2
OBJECTS
0
DICTIONARY
5
C
100
AcDbDictionary
3
ACAD_GROUP
350
D
3
ACAD_MLINESTYLE
350
17
0
DICTIONARY
5
D
100
AcDbDictionary
0
DICTIONARY
5
1A
330
C
100
AcDbDictionary
0
DICTIONARY
5
17
100
AcDbDictionary
0
ENDSEC
0
EOF
